<svg xmlns="http://www.w3.org/2000/svg" width="134" height="29" fill="none"><g fill="#fff" clip-path="url(#a)"><path d="M25.546 2.55a3.41 3.41 0 0 1 2.394-.977h11.586c7.535 0 11.308 8.983 5.98 14.237L33.901 27.254c-.533.525-1.444.153-1.444-.59v-10.08l1.341-1.322c1.066-1.05.311-2.847-1.196-2.847h-17.06L25.547 2.55Z"/><path d="M22.454 26.45a3.41 3.41 0 0 1-2.393.977H8.474c-7.535 0-11.308-8.983-5.98-14.237L14.1 1.746c.533-.525 1.444-.153 1.444.59v10.079l-1.341 1.323c-1.066 1.05-.311 2.847 1.196 2.847h17.06L22.453 26.45Z"/></g><path fill="#fff" d="M64.352 23.384c-1.408 0-2.624-.248-3.648-.744s-1.832-1.184-2.424-2.064c-.576-.896-.912-1.936-1.008-3.12l3.168-.192c.096.736.304 1.36.624 1.872a3.34 3.34 0 0 0 1.32 1.176c.56.256 1.232.384 2.016.384.672 0 1.24-.08 1.704-.24.48-.176.84-.424 1.08-.744.256-.336.384-.744.384-1.224 0-.432-.104-.816-.312-1.152-.208-.352-.608-.664-1.2-.936-.592-.288-1.472-.568-2.64-.84-1.408-.32-2.536-.68-3.384-1.08-.848-.416-1.464-.928-1.848-1.536-.384-.624-.576-1.4-.576-2.328 0-.992.248-1.864.744-2.616.496-.768 1.2-1.36 2.112-1.776.912-.432 2.008-.648 3.288-.648 1.36 0 2.512.248 3.456.744.944.48 1.688 1.144 2.232 1.992.544.848.88 1.824 1.008 2.928l-3.144.144c-.08-.624-.272-1.168-.576-1.632a2.91 2.91 0 0 0-1.2-1.08c-.496-.272-1.104-.408-1.824-.408-.896 0-1.608.208-2.136.624-.512.4-.768.936-.768 1.608 0 .464.104.848.312 1.152.224.304.616.568 1.176.792.56.208 1.344.432 2.352.672 1.52.32 2.728.728 3.624 1.224.896.496 1.536 1.072 1.92 1.728.384.656.576 1.408.576 2.256 0 1.04-.264 1.944-.792 2.712-.528.752-1.272 1.336-2.232 1.752-.96.4-2.088.6-3.384.6Zm14.658-.096c-1.28 0-2.392-.272-3.336-.816a5.802 5.802 0 0 1-2.208-2.352c-.512-1.008-.768-2.184-.768-3.528 0-1.344.256-2.512.768-3.504a5.802 5.802 0 0 1 2.208-2.352c.944-.56 2.056-.84 3.336-.84 1.088 0 2.056.192 2.904.576a5.135 5.135 0 0 1 2.064 1.656c.544.704.88 1.568 1.008 2.592l-3.168.168c-.128-.816-.448-1.432-.96-1.848-.496-.432-1.112-.648-1.848-.648-.992 0-1.76.376-2.304 1.128-.544.736-.816 1.76-.816 3.072 0 1.328.272 2.36.816 3.096.544.736 1.312 1.104 2.304 1.104.752 0 1.376-.216 1.872-.648.512-.432.824-1.104.936-2.016l3.168.144c-.128 1.024-.456 1.912-.984 2.664a5.36 5.36 0 0 1-2.064 1.752c-.848.4-1.824.6-2.928.6Zm11.547 0c-1.344 0-2.424-.304-3.24-.912-.816-.624-1.224-1.488-1.224-2.592s.344-1.968 1.032-2.592c.688-.624 1.736-1.072 3.144-1.344l4.248-.84c0-.912-.208-1.592-.624-2.04-.416-.464-1.032-.696-1.848-.696-.736 0-1.32.176-1.752.528-.416.336-.704.824-.864 1.464l-3.12-.144c.256-1.36.88-2.4 1.872-3.12.992-.736 2.28-1.104 3.864-1.104 1.824 0 3.2.464 4.128 1.392.944.912 1.416 2.224 1.416 3.936v4.656c0 .336.056.568.168.696.128.128.312.192.552.192h.408V23a2.18 2.18 0 0 1-.48.072 8.453 8.453 0 0 1-.648.024c-.528 0-1-.08-1.416-.24a1.917 1.917 0 0 1-.96-.888c-.224-.432-.336-1.016-.336-1.752l.264.192a3.174 3.174 0 0 1-.84 1.512c-.416.432-.944.768-1.584 1.008-.64.24-1.36.36-2.16.36Zm.624-2.232c.688 0 1.28-.136 1.776-.408.496-.272.88-.648 1.152-1.128.272-.48.408-1.048.408-1.704v-.72l-3.312.672c-.688.144-1.184.36-1.488.648-.288.272-.432.632-.432 1.08 0 .496.16.88.48 1.152.336.272.808.408 1.416.408ZM103.117 23c-.928 0-1.672-.24-2.232-.72-.56-.48-.84-1.248-.84-2.304V5.96h3.072v13.704c0 .32.08.56.24.72.176.16.416.24.72.24h.936V23h-1.896Zm8.929.288c-1.28 0-2.392-.272-3.336-.816a5.642 5.642 0 0 1-2.184-2.352c-.512-1.008-.768-2.184-.768-3.528 0-1.344.256-2.512.768-3.504.512-1.008 1.232-1.792 2.16-2.352.944-.56 2.04-.84 3.288-.84 1.216 0 2.28.272 3.192.816.928.544 1.64 1.328 2.136 2.352.496 1.024.744 2.256.744 3.696v.696h-9.096c.064 1.12.368 1.968.912 2.544.56.56 1.296.84 2.208.84.688 0 1.256-.152 1.704-.456.464-.32.784-.76.96-1.32l3.144.192c-.352 1.248-1.048 2.232-2.088 2.952-1.024.72-2.272 1.08-3.744 1.08Zm-3.096-7.896h5.928c-.064-1.04-.36-1.808-.888-2.304-.528-.512-1.2-.768-2.016-.768-.816 0-1.496.264-2.04.792-.528.528-.856 1.288-.984 2.28ZM118.365 23l5.736-8.544-5.688-8.496h3.648l3.96 6.12 3.864-6.12h3.624l-5.664 8.448L133.581 23h-3.624l-3.984-6.216L121.989 23h-3.624Z"/><defs><clipPath id="a"><path fill="#fff" d="M0 1.5h48v26H0z"/></clipPath></defs></svg>